<?xml version="1.0" standalone="no"?>
<!DOCTYPE svg PUBLIC "-//W3C//DTD SVG 20010904//EN"
 "http://www.w3.org/TR/2001/REC-SVG-20010904/DTD/svg10.dtd">
<svg version="1.0" xmlns="http://www.w3.org/2000/svg"
 width="140.000000pt" height="140.000000pt" viewBox="0 0 140.000000 140.000000"
 preserveAspectRatio="xMidYMid meet">

<g transform="translate(0.000000,140.000000) scale(0.100000,-0.100000)"
fill="#FF7643" stroke="none">
<path d="M409 847 c-104 -30 -190 -104 -237 -206 -22 -46 -27 -71 -27 -141 0
-76 3 -92 32 -151 39 -79 102 -140 181 -177 82 -38 202 -38 284 0 79 37 142
98 181 177 28 58 32 75 32 151 0 76 -4 93 -32 151 -60 121 -170 196 -300 205
-40 2 -87 -2 -114 -9z m174 -22 c152 -39 251 -168 251 -325 0 -159 -100 -286
-256 -326 -77 -20 -146 -12 -224 25 -205 99 -254 371 -96 534 58 60 154 103
237 106 17 1 56 -6 88 -14z"/>
<path d="M397 795 c-89 -34 -172 -122 -197 -209 -17 -63 -9 -161 18 -218 29
-60 90 -120 150 -150 67 -33 197 -33 264 0 60 30 121 90 150 150 27 56 36 162
18 219 -13 42 -77 143 -91 143 -5 0 6 -21 24 -47 49 -70 62 -110 61 -188 -1
-116 -64 -214 -170 -265 -69 -34 -179 -33 -249 0 -63 31 -114 82 -145 145 -34
70 -34 180 0 250 51 104 147 167 260 169 36 1 79 -3 95 -7 25 -7 28 -6 17 5
-19 19 -158 21 -205 3z"/>
<path d="M635 770 c3 -5 11 -10 16 -10 6 0 7 5 4 10 -3 6 -11 10 -16 10 -6 0
-7 -4 -4 -10z"/>
<path d="M670 750 c0 -5 5 -10 11 -10 5 0 7 5 4 10 -3 6 -8 10 -11 10 -2 0 -4
-4 -4 -10z"/>
<path d="M477 674 c-4 -4 -7 -38 -7 -75 l0 -68 -67 -3 c-65 -3 -68 -4 -68 -28
0 -24 3 -25 67 -28 l67 -3 3 -72 c3 -69 4 -72 28 -72 24 0 25 3 28 72 l3 72
67 3 c64 3 67 4 67 28 0 24 -3 25 -67 28 l-67 3 -3 72 c-3 64 -5 72 -23 75
-12 2 -24 0 -28 -4z m41 -82 l3 -71 67 -3 c52 -2 67 -6 67 -18 0 -12 -15 -16
-67 -18 l-67 -3 -3 -72 c-2 -56 -6 -72 -18 -72 -12 0 -16 16 -18 72 l-3 72
-67 3 c-52 2 -67 6 -67 18 0 12 15 16 68 18 l67 3 0 68 c0 37 3 71 7 75 18 17
28 -7 31 -72z"/>
</g>
</svg>
