<svg version="1.1" id="Layer_1" xmlns="http://www.w3.org/2000/svg" xmlns:xlink="http://www.w3.org/1999/xlink" x="0px" y="0px"
	 width="100%" viewBox="0 0 256 256" enable-background="new 0 0 256 256" xml:space="preserve">
<path fill="FF7643" opacity="1.000000" stroke="none"
	d="
M80.252617,256.741669 
	C54.695034,257.000000 29.389984,256.972290 4.085239,257.047058 
	C1.801854,257.053802 0.918965,256.808044 0.922072,254.091721 
	C1.017479,170.685333 1.019309,87.278786 0.916583,3.872414 
	C0.913126,1.065828 1.922678,0.951160 4.121135,0.960251 
	C21.434744,1.031848 38.748779,1.000000 56.531342,1.000000 
	C58.879169,3.182536 57.804016,4.721087 55.767254,5.781248 
	C42.848282,12.505750 39.016865,23.672438 39.400288,37.452717 
	C39.817215,52.437092 39.462818,67.442085 39.503819,82.437935 
	C39.554592,101.007179 50.952747,113.207008 69.389450,113.285034 
	C76.417702,113.314789 80.342972,115.716751 82.282425,122.148712 
	C82.665291,123.418442 83.289246,124.619347 84.019592,125.741158 
	C87.134613,130.525787 91.657951,130.543411 94.772636,125.789070 
	C94.955040,125.510628 95.177605,125.233261 95.261658,124.920418 
	C97.879051,115.178474 104.429413,111.884811 113.978172,113.458115 
	C114.461319,113.537720 114.986710,113.469833 115.469261,113.356613 
	C116.703720,113.066956 118.478226,113.207504 118.410973,111.390129 
	C118.358925,109.983650 116.829498,109.796684 115.699608,109.710899 
	C111.377289,109.382721 107.036285,109.207016 102.738083,109.898537 
	C98.650795,110.556137 96.682709,113.592072 94.984879,117.003708 
	C93.640160,119.705795 93.330574,123.910721 89.521484,123.972527 
	C85.668015,124.035049 85.049255,119.859055 83.950943,117.116249 
	C81.486359,110.961441 76.862083,109.119347 70.811745,109.504585 
	C62.773056,110.016426 55.677906,108.155319 49.983105,101.994186 
	C45.359966,96.992455 42.676731,91.182014 42.593609,84.453033 
	C42.379574,67.126511 42.250813,49.791981 42.613113,32.469616 
	C42.930374,17.300751 54.123039,6.600192 69.321327,6.539714 
	C96.147079,6.432969 122.973442,6.487021 149.799500,6.516415 
	C166.515442,6.534730 177.678955,16.681057 178.311676,33.426357 
	C178.940521,50.068832 178.781113,66.752075 178.331268,83.404396 
	C178.081482,92.651306 174.370193,100.496040 166.314087,105.851303 
	C161.948288,108.753433 157.199554,109.662659 152.063324,109.530144 
	C148.577972,109.440216 145.058884,109.185715 141.597015,109.885574 
	C140.621078,110.082870 139.548401,110.483429 139.670013,111.747757 
	C139.762192,112.706367 140.710831,113.053947 141.523529,113.159164 
	C159.527802,115.490059 179.448166,109.591408 181.150772,86.374886 
	C182.512909,67.800987 181.866501,49.063744 181.270935,30.415941 
	C180.940826,20.080246 175.814041,12.094582 166.802719,6.717800 
	C164.977295,5.628624 162.052139,4.982406 163.736252,1.322275 
	C193.641647,1.000000 223.283600,1.061361 252.924500,0.912777 
	C256.178802,0.896464 257.111115,1.336678 257.105225,4.918363 
	C256.968933,87.681610 256.982422,170.445145 257.070312,253.208527 
	C257.073517,256.221039 256.529968,257.095184 253.297531,257.087982 
	C198.177673,256.965363 143.057449,257.000000 87.468658,257.000000 
	C85.174950,255.470993 85.490616,253.965668 86.873352,252.273697 
	C93.513153,244.149078 100.276489,236.127930 106.993073,228.067490 
	C110.110153,224.326782 114.464180,223.961060 118.758972,223.578735 
	C125.229401,223.002777 131.627380,221.855789 138.097305,221.305893 
	C138.761963,221.249420 139.426132,221.124603 140.050125,220.894989 
	C140.968369,220.557098 142.296158,220.313614 142.166351,219.132370 
	C141.998047,217.600342 140.493439,217.818832 139.369354,217.743698 
	C138.537094,217.688080 137.713409,217.883408 136.887787,217.995590 
	C129.631866,218.981583 122.353294,219.787247 115.070473,220.530258 
	C110.378014,221.009018 106.536537,222.663712 103.435677,226.441620 
	C97.625526,233.520477 91.829796,240.618301 85.802170,247.515244 
	C83.456970,250.198685 82.678726,253.738754 80.252617,256.741669 
z"/>
<path fill="#CD610F" opacity="1.000000" stroke="none"
	d="
M163.531342,1.000000 
	C163.353287,3.725816 165.954056,3.335042 167.131866,3.954982 
	C178.224365,9.793460 183.752380,19.128683 183.932480,31.410563 
	C184.196228,49.398994 184.015228,67.394180 183.995667,85.386459 
	C183.977966,101.674011 170.526428,115.484856 153.490234,115.976715 
	C148.330093,116.125702 143.161255,115.947083 137.997833,116.019562 
	C135.304321,116.057365 133.496933,115.079613 133.030441,112.300003 
	C132.545349,109.409569 133.950577,108.259621 136.734711,107.604538 
	C142.020004,106.360977 147.374619,106.695412 152.571869,107.144096 
	C163.241867,108.065224 173.901108,98.275291 175.098679,87.939171 
	C176.962860,71.849335 175.472488,55.744946 175.975983,39.657337 
	C176.172409,33.381733 176.014008,27.049572 172.726242,21.440012 
	C168.182724,13.687891 161.486130,9.055862 152.275040,9.029243 
	C124.453835,8.948841 96.632225,8.975234 68.810844,9.010974 
	C55.547665,9.028011 45.425865,18.771568 45.099613,32.588261 
	C44.690723,49.904522 44.718910,67.243950 45.097618,84.561584 
	C45.364269,96.755287 55.347252,107.391479 67.751587,107.111198 
	C83.186768,106.762436 81.667252,105.328804 87.649498,119.168686 
	C88.101646,120.214722 88.698723,121.198097 89.358864,122.459915 
	C92.135002,119.181129 92.846291,115.099709 94.607918,111.573593 
	C96.261177,108.264412 98.582085,107.030693 101.928192,107.009644 
	C107.592209,106.974007 113.261200,106.864883 118.918991,107.056229 
	C121.890823,107.156738 125.189964,107.464882 124.970795,111.801460 
	C124.775940,115.657043 122.107307,116.129211 119.002174,116.016663 
	C116.672897,115.932220 114.338104,116.000313 112.005768,116.000320 
	C101.636757,116.000359 101.636765,116.000351 97.942207,125.993034 
	C95.973267,131.318436 92.960449,133.475830 88.152153,132.989761 
	C85.921944,132.764297 84.020622,132.063629 82.982948,129.811523 
	C80.927055,125.349510 79.814766,119.734718 76.410469,116.811035 
	C72.905334,113.800735 66.961090,116.137321 62.016582,115.300911 
	C47.303448,112.812035 36.332661,97.982071 36.839520,84.625427 
	C37.496063,67.324425 37.033367,49.979584 36.988453,32.653778 
	C36.954178,19.431623 42.332203,9.586204 54.526611,3.793420 
	C55.652790,3.258446 57.085548,2.903557 57.335083,1.258230 
	C92.354225,1.000000 127.708458,1.000000 163.531342,1.000000 
z"/>
<path fill="#CD610F" opacity="1.000000" stroke="none" 
	d="
M80.437500,257.000000 
	C78.695244,253.591736 79.694557,251.029572 82.098160,248.232376 
	C89.695595,239.390884 97.033432,230.318909 104.239655,221.153671 
	C106.130974,218.748245 108.598320,218.946899 110.888641,218.655807 
	C121.781212,217.271347 132.629135,215.439087 143.628052,215.000778 
	C145.959961,214.907837 147.853851,215.099411 148.056259,218.250031 
	C148.262177,221.455093 146.862015,222.644974 143.914139,223.019424 
	C134.027969,224.275223 124.178497,225.867615 114.267212,226.848572 
	C111.346924,227.137604 109.697441,228.576553 108.137772,230.420731 
	C100.819374,239.074173 93.603485,247.814316 86.675499,256.761749 
	C84.958336,257.000000 82.916664,257.000000 80.437500,257.000000 
z"/>
<path fill="#CD610F" opacity="1.000000" stroke="none" 
	d="
M190.231323,212.274902 
	C181.276428,219.021744 171.095657,220.394531 160.701096,220.982559 
	C157.958115,221.137741 156.324921,219.812683 156.012619,217.004379 
	C155.708237,214.267181 156.939636,213.187012 159.668121,212.903427 
	C164.209656,212.431396 168.764786,211.810410 173.215881,210.813354 
	C179.934921,209.308304 185.375656,205.380127 190.541428,200.982422 
	C203.324249,190.100128 216.179657,179.303101 228.999283,168.464005 
	C233.396790,164.745880 238.013092,161.242966 242.071747,157.184067 
	C244.490005,154.765671 245.189072,151.397247 242.716522,148.228867 
	C240.041443,144.800949 236.793228,145.412659 234.000931,147.644958 
	C227.318863,152.986908 220.869675,158.620941 214.347336,164.161621 
	C209.451920,168.320282 204.679840,172.630127 199.677277,176.654419 
	C196.697464,179.051514 193.322952,180.262405 189.203918,180.107788 
	C180.051926,179.764221 170.878082,180.019287 161.713303,179.986389 
	C159.848831,179.979691 158.225952,180.091904 156.781128,181.656067 
	C153.082977,185.659622 148.114822,186.871567 142.938629,186.953201 
	C132.943039,187.110855 122.942612,186.937729 112.945442,187.032791 
	C109.437355,187.066132 106.137100,186.286667 106.218338,182.354202 
	C106.300743,178.365570 109.792786,177.947159 113.178513,177.972961 
	C123.342628,178.050385 133.507751,178.016495 143.672424,177.993866 
	C149.472565,177.980957 152.985916,174.607178 153.033203,169.086502 
	C153.079269,163.709015 149.470779,160.049881 143.710495,160.028015 
	C125.214325,159.957779 106.667961,159.156708 88.235298,160.241074 
	C69.894646,161.320053 55.182236,170.661194 46.379196,186.771500 
	C40.538921,197.459702 32.592598,206.289001 25.520428,215.893616 
	C21.429682,221.449234 16.781496,226.591125 12.514134,232.021347 
	C10.426971,234.677277 8.154960,234.271530 6.148015,232.442749 
	C4.147141,230.619476 4.559744,228.354965 6.207923,226.277664 
	C15.084687,215.089737 24.093393,204.001083 32.719166,192.622391 
	C35.657627,188.746109 37.325573,183.929916 40.070614,179.879730 
	C51.273327,163.350677 66.522789,153.735947 86.778824,151.881302 
	C105.564217,150.161316 124.379562,150.631393 143.086823,151.436798 
	C151.656784,151.805756 154.719040,146.004486 159.804214,142.455490 
	C166.386566,137.861588 172.013077,131.915283 178.495834,127.157112 
	C186.458023,121.313087 195.204346,123.368095 200.303467,131.818695 
	C201.630173,134.017395 202.457977,134.362320 204.818604,132.845505 
	C211.876450,128.310532 221.559738,130.908417 225.641037,138.344498 
	C227.039291,140.892120 227.759689,141.169113 230.342255,139.447052 
	C235.826538,135.790131 246.273529,137.594437 249.637314,142.239578 
	C254.637390,149.144318 254.529388,157.487503 248.515961,162.851471 
	C237.952255,172.274200 226.972687,181.230301 216.182114,190.399246 
	C209.154190,196.371017 202.161377,202.384094 195.131912,208.354034 
	C193.630615,209.629074 192.038925,210.797684 190.231323,212.274902 
z"/>
<path fill="#CD610F" opacity="1.000000" stroke="none" 
	d="
M137.010071,54.976196 
	C136.864426,53.151634 137.591736,51.202904 135.825409,50.606445 
	C134.436035,50.137272 133.692429,51.894882 132.768799,52.762424 
	C126.244812,58.890175 119.772728,65.073135 113.257355,71.210091 
	C110.368454,73.931206 107.459198,73.934631 104.615036,71.088913 
	C102.967216,69.440201 101.317917,67.792809 99.654922,66.159447 
	C97.561836,64.103676 96.632881,61.553028 98.526260,59.202469 
	C100.672600,56.537865 103.407463,58.082317 105.669815,59.442043 
	C107.064102,60.280041 108.142281,61.643993 109.478821,62.879429 
	C117.054077,55.839870 123.728485,47.972111 131.897751,41.722286 
	C124.667915,32.084904 110.888451,27.762342 99.055389,33.474602 
	C96.395294,34.758724 94.318489,33.795811 93.312447,31.407875 
	C92.239418,28.860933 92.972542,26.280630 95.737671,25.172716 
	C108.180878,20.187073 123.952942,21.257120 134.045654,31.735607 
	C137.373886,35.191063 139.310135,34.916473 142.066299,31.527843 
	C143.941208,29.222672 146.196762,27.183693 148.489655,25.275023 
	C150.483932,23.614941 152.975906,23.524878 154.654602,25.560247 
	C156.290161,27.543310 156.928207,29.957106 154.419754,32.126518 
	C152.660751,33.647755 151.316513,35.744488 149.392990,36.961220 
	C144.012436,40.364693 143.089264,44.463127 144.878265,50.630890 
	C150.106766,68.656578 138.080124,86.967957 120.458656,92.233994 
	C98.102821,98.914879 74.752609,82.278534 74.893333,58.673641 
	C74.935089,51.669743 76.636169,45.448872 79.831100,39.352554 
	C81.460114,36.244190 83.738243,35.037178 86.639801,36.432449 
	C89.977455,38.037418 89.433136,40.948795 87.679581,43.592041 
	C81.760666,52.514004 81.527985,61.955608 86.675476,70.923126 
	C92.444389,80.973236 101.616745,86.315338 113.472519,84.896629 
	C125.672707,83.436714 135.133301,74.516014 136.944061,61.962147 
	C137.252884,59.821167 138.440460,57.577911 137.010071,54.976196 
z"/>
<path fill="#000000" opacity="1.000000" stroke="none" 
	d="
M180.652710,164.718384 
	C190.221664,156.601273 199.486420,148.677414 208.766144,140.771133 
	C212.268372,137.787247 215.101715,139.342346 217.700333,142.179413 
	C220.309723,145.028229 219.317978,148.154694 217.120026,150.142822 
	C209.924316,156.651581 202.250153,162.628494 194.976868,169.055420 
	C190.239990,173.241104 184.693436,171.698288 179.377090,171.981964 
	C177.387863,172.088089 175.388214,171.999146 172.516266,171.999146 
	C175.436310,169.265564 177.295212,166.490021 180.652710,164.718384 
z"/>
<path fill="#000000" opacity="1.000000" stroke="none" 
	d="
M167.760239,163.737915 
	C165.988190,165.479645 164.684250,167.288025 162.384735,167.468140 
	C162.009109,166.225449 161.567963,164.990372 161.266144,163.722137 
	C160.579620,160.837524 156.927139,158.486374 158.160950,155.726608 
	C159.254471,153.280624 162.410889,151.743790 164.687286,149.842316 
	C170.606628,144.897949 176.574463,140.011108 182.459656,135.026611 
	C185.640518,132.332550 190.176453,132.308533 192.540878,135.140289 
	C195.077820,138.178619 194.060150,141.993759 190.396988,144.944016 
	C182.852142,151.020538 175.464127,157.291809 167.760239,163.737915 
z"/>
</svg>