<?xml version="1.0" standalone="no"?>
<!DOCTYPE svg PUBLIC "-//W3C//DTD SVG 20010904//EN"
 "http://www.w3.org/TR/2001/REC-SVG-20010904/DTD/svg10.dtd">
<svg version="1.0" xmlns="http://www.w3.org/2000/svg"
 width="150.000000pt" height="150.000000pt" viewBox="0 0 500.000000 500.000000"
 preserveAspectRatio="xMidYMid meet">

<g transform="translate(0.000000,512.000000) scale(0.100000,-0.100000)"
fill="#FF7643" stroke="none">
<path d="M1211 5104 c-210 -45 -387 -206 -458 -417 l-28 -82 0 -630 0 -630 27
-81 c50 -147 149 -270 279 -347 106 -62 173 -79 344 -85 l150 -5 65 -145 c75
-168 97 -192 180 -192 83 0 105 24 180 193 l65 146 206 1 c187 0 209 2 230 19
17 13 23 29 23 56 0 27 -6 43 -23 56 -21 17 -44 19 -266 19 -217 0 -245 -2
-263 -17 -11 -10 -49 -82 -83 -160 -35 -79 -66 -143 -70 -143 -3 0 -34 64 -68
143 -35 78 -72 150 -83 160 -17 15 -42 17 -172 17 -223 0 -310 27 -423 133
-85 80 -130 170 -143 287 -13 110 -12 1062 0 1160 25 192 177 358 368 399 70
15 1795 16 1873 1 175 -33 318 -170 364 -347 22 -85 22 -1191 0 -1276 -46
-177 -189 -314 -364 -347 -30 -5 -138 -10 -241 -10 -182 0 -187 -1 -208 -23
-31 -33 -29 -80 4 -106 25 -20 39 -21 223 -21 227 0 295 11 409 66 58 28 95
56 157 118 92 93 136 168 165 282 19 73 20 112 20 679 0 567 -1 606 -20 679
-29 115 -73 189 -165 282 -91 92 -184 144 -302 169 -99 21 -1855 20 -1952 -1z"/>
<path d="M2013 4660 c-39 -10 -90 -28 -112 -40 -70 -35 -76 -96 -15 -136 25
-17 28 -17 72 0 89 34 147 46 227 46 150 0 287 -56 389 -159 l59 -59 -134
-128 c-74 -71 -179 -173 -234 -226 l-101 -98 -56 57 c-49 49 -63 57 -94 57
-43 0 -74 -31 -74 -73 0 -39 185 -221 224 -221 21 0 70 42 233 198 113 108
230 219 259 245 l53 48 11 -38 c6 -21 14 -76 17 -123 10 -158 -39 -289 -152
-409 -213 -225 -566 -230 -785 -11 -110 110 -160 233 -161 390 0 106 20 182
74 282 40 75 41 79 27 105 -38 68 -102 60 -150 -19 -110 -178 -134 -403 -65
-601 34 -100 80 -171 165 -257 133 -136 276 -200 467 -208 130 -5 223 12 323
59 201 95 337 261 391 478 30 119 24 262 -17 381 l-29 84 134 132 c125 123
133 133 127 160 -11 44 -35 64 -74 64 -29 0 -46 -11 -116 -77 -44 -43 -98 -94
-119 -113 l-37 -34 -30 36 c-72 87 -234 183 -362 213 -88 21 -246 18 -335 -5z"/>
<path d="M3650 2637 c-62 -18 -79 -30 -396 -300 l-280 -237 -669 -3 -670 -2
-97 -27 c-377 -104 -644 -319 -818 -663 -36 -69 -113 -175 -338 -458 -310
-392 -317 -402 -272 -447 32 -32 80 -26 117 13 16 17 151 185 299 372 214 271
280 362 327 449 78 148 129 217 236 318 141 135 282 212 491 271 72 20 100 21
690 25 338 2 630 0 648 -3 40 -7 110 -68 129 -112 33 -80 1 -184 -70 -231
l-40 -27 -388 -5 c-363 -5 -388 -6 -408 -24 -28 -25 -28 -79 -1 -106 20 -20
30 -21 423 -18 l402 3 50 24 c27 14 65 39 85 57 l36 33 350 3 c319 3 353 5
394 22 26 12 176 132 370 296 468 397 432 370 488 370 59 0 103 -26 126 -75
22 -45 17 -103 -11 -139 -15 -21 -1009 -868 -1148 -979 -54 -43 -164 -98 -233
-117 -24 -6 -107 -20 -185 -30 -120 -16 -145 -22 -159 -41 -42 -51 -8 -119 60
-119 52 0 249 26 309 41 79 20 180 66 251 113 37 25 195 154 352 287 157 133
400 339 540 457 316 267 326 276 358 337 22 42 27 63 27 130 0 67 -5 88 -27
131 -50 95 -126 145 -234 152 -83 5 -124 -6 -195 -54 -28 -19 -52 -34 -53 -34
-2 0 -8 18 -15 39 -16 57 -90 134 -153 161 -61 27 -152 31 -211 11 -21 -7 -57
-28 -81 -46 l-44 -33 -16 42 c-50 132 -210 212 -346 173z m137 -156 c66 -31
94 -107 64 -178 -8 -20 -117 -119 -321 -292 -170 -143 -311 -261 -314 -261 -3
0 -6 13 -6 28 0 49 -29 128 -66 182 -35 51 -35 53 -18 70 66 64 524 445 549
456 41 18 63 17 112 -5z m500 -131 c75 -34 104 -117 66 -187 -23 -40 -481
-432 -533 -456 -34 -15 -65 -17 -235 -15 l-196 3 387 328 c344 291 413 343
459 346 6 0 29 -8 52 -19z"/>
<path d="M2486 795 c-191 -24 -356 -47 -366 -52 -10 -4 -136 -149 -279 -321
-228 -274 -261 -318 -261 -348 0 -40 32 -74 71 -74 34 0 40 6 319 340 121 146
226 266 233 267 7 2 162 21 345 43 183 22 342 45 353 51 48 25 44 105 -7 128
-31 14 6 17 -408 -34z"/>
</g>
</svg>
