<?xml version="1.0" standalone="no"?>
<!DOCTYPE svg PUBLIC "-//W3C//DTD SVG 20010904//EN"
 "http://www.w3.org/TR/2001/REC-SVG-20010904/DTD/svg10.dtd">
<svg version="1.0" xmlns="http://www.w3.org/2000/svg"
 width="96.000000pt" height="96.000000pt" viewBox="0 0 96.000000 96.000000"
 preserveAspectRatio="xMidYMid meet">

<g transform="translate(0.000000,96.000000) scale(0.100000,-0.100000)"
fill="#FF7643" stroke="none">
<path d="M55 898 c-3 -7 -4 -200 -3 -428 l3 -415 425 0 425 0 0 25 c0 21 -5
26 -32 28 l-33 3 -2 207 -3 207 -85 0 -85 0 -3 -207 -2 -208 -30 0 -29 0 -3
148 -3 147 -85 0 -85 0 -3 -147 -3 -148 -29 0 -29 0 -3 87 -3 88 -85 0 -85 0
-3 -87 -3 -88 -34 0 -35 0 -2 398 -3 397 -23 3 c-12 2 -24 -3 -27 -10z"/>
<path d="M735 863 c-45 -5 -71 -28 -54 -50 6 -7 22 -13 35 -13 37 0 29 -13
-33 -59 -107 -80 -264 -145 -411 -171 -81 -15 -105 -32 -80 -57 14 -13 25 -14
83 -4 161 28 351 109 456 193 32 26 61 48 63 48 3 0 6 -10 8 -22 2 -17 10 -23
28 -23 25 0 25 1 22 70 -5 98 -6 98 -117 88z"/>
</g>
</svg>
